<svg width="55" height="70" viewBox="0 0 55 70" fill="none" xmlns="http://www.w3.org/2000/svg">
<path d="M11.4691 10.2903C11.4691 11.8946 11.4691 13.3776 11.4691 14.9802C10.8606 15.0314 10.3363 15.0762 9.81175 15.1203C6.82003 15.3701 4.73291 17.458 4.72165 20.4211C4.67188 33.3581 4.63954 46.2957 4.66933 59.2327C4.67805 63.1025 6.90504 65.1951 10.8377 65.203C21.735 65.2247 32.6324 65.2247 43.5294 65.2037C47.5768 65.1958 49.7998 62.966 49.8049 58.9185C49.8205 46.8836 49.8169 34.849 49.8005 22.8141C49.7925 16.9185 48.877 15.8616 43.0015 14.8787C43.0015 13.3635 43.0015 11.8318 43.0015 10.3127C48.9824 9.33048 54.4252 14.098 54.4848 20.4266C54.5578 28.1883 54.5052 35.9515 54.5066 43.7139C54.5077 49.1289 54.5571 54.5446 54.4954 59.9588C54.4307 65.6017 49.9626 69.9695 44.2727 69.9825C33.012 70.0085 21.7517 70.0038 10.4911 69.9846C4.79503 69.9749 0.161229 65.7302 0.106372 60.0863C-0.0229604 46.729 -0.0371289 33.3689 0.079125 20.0113C0.131076 14.0077 5.61026 9.44603 11.4691 10.2903Z" fill="#0F69C9"/>
<path d="M35.3252 7.46492C36.4278 7.60322 37.4185 7.59383 38.3209 7.86935C40.1512 8.42796 40.7837 9.60549 40.7641 12.1682C40.7466 14.4593 41.3595 17.0419 38.3863 18.1483C37.7872 18.3711 37.0817 18.37 36.4249 18.3714C30.3099 18.387 24.1954 18.3877 18.0804 18.3776C15.1595 18.3729 13.8647 17.0899 13.8422 14.2286C13.8404 13.9877 13.8419 13.7472 13.8419 13.5064C13.84 8.47888 14.3178 7.94662 19.401 7.47865C19.6872 4.95062 20.477 2.46557 22.9137 1.23351C24.454 0.454992 26.3344 0.00290176 28.0637 1.30048e-05C31.8656 -0.0064867 34.0678 2.42332 35.3252 7.46492ZM31.2084 7.51259C31.0641 4.94015 29.5205 3.49397 27.1442 3.54488C24.9038 3.59291 23.4244 5.10806 23.354 7.51259C25.933 7.51259 28.5105 7.51259 31.2084 7.51259Z" fill="#0F69C9"/>
<path d="M23.4709 45.023C23.8767 44.6518 24.3678 44.225 24.8339 43.7725C28.5584 40.1565 32.2735 36.5315 36.0008 32.9184C37.684 31.287 39.5066 31.1302 40.7741 32.4782C41.9828 33.7634 41.7797 35.5172 40.1791 37.0768C35.3811 41.7526 30.5718 46.4172 25.7549 51.0735C23.9816 52.7876 22.4994 52.8003 20.7135 51.0703C18.5461 48.9709 16.4048 46.8429 14.3021 44.6796C12.8057 43.1399 12.7864 41.3496 14.1448 40.0363C15.3498 38.871 17.1499 39.0563 18.6514 40.483C20.182 41.9375 21.7249 43.3793 23.4709 45.023Z" fill="#0F69C9"/>
</svg>
