<svg width="82" height="70" viewBox="0 0 82 70" fill="none" xmlns="http://www.w3.org/2000/svg">
<path d="M66.7249 53.4031C71.6651 53.4031 76.4788 53.4031 81.2245 53.4031C81.3288 53.5334 81.3964 53.5784 81.3954 53.6221C81.3248 56.721 81.5566 59.8671 81.097 62.9068C80.4841 66.9613 76.5965 69.9669 72.5166 69.9733C55.9218 69.9987 39.327 70.0302 22.733 69.9337C20.5675 69.9212 18.6661 68.6723 17.1671 67.0216C15.5314 65.2202 14.7304 63.0937 14.7355 60.6415C14.7489 54.0404 14.7368 47.439 14.7368 40.8376C14.7368 33.0522 14.7392 25.2668 14.7375 17.4814C14.7375 17.2235 14.7052 16.9656 14.6803 16.5957C9.79362 16.5957 4.95571 16.5957 0.0101515 16.5957C0.0101515 15.5996 -0.015752 14.7168 0.0151977 13.8362C0.0939175 11.5942 -0.0547756 9.3058 0.349925 7.1227C0.973966 3.75531 3.18283 1.54615 6.40597 0.463736C7.29645 0.164533 8.28079 0.0220393 9.2224 0.020347C25.2873 -0.00571485 41.3522 -0.00402253 57.4171 0.00511603C62.6116 0.00816222 66.5988 3.80743 66.6862 9.03672C66.7942 15.4882 66.7253 21.9427 66.7273 28.3959C66.7296 36.359 66.7259 44.3221 66.7249 52.2851C66.7249 52.609 66.7249 52.9326 66.7249 53.4031ZM29.4332 53.396C40.7056 53.396 51.8708 53.396 63.1398 53.396C63.1398 52.9526 63.1398 52.605 63.1398 52.2577C63.1398 37.9904 63.1438 23.7231 63.1364 9.45574C63.1348 6.07109 60.7843 3.67746 57.4336 3.67442C44.1061 3.66257 30.7782 3.66934 17.4506 3.67239C17.2014 3.67239 16.9521 3.71097 16.5857 3.74109C17.7628 5.51736 18.3502 7.35489 18.3482 9.39888C18.3314 26.3005 18.333 43.2021 18.3425 60.1037C18.3428 60.7478 18.3997 61.4139 18.5675 62.0319C19.3009 64.7349 21.8751 66.4326 24.6219 66.0796C27.3098 65.734 29.3966 63.3644 29.4278 60.5701C29.4541 58.2357 29.4332 55.9006 29.4332 53.396ZM31.1553 66.305C32.9844 66.305 34.587 66.305 36.1893 66.305C48.1901 66.3064 60.1912 66.3131 72.1919 66.305C75.0393 66.303 77.262 64.522 77.6882 61.6877C77.9126 60.1961 77.7279 58.6422 77.7279 57.0934C62.8401 57.0934 47.9792 57.0934 33.0345 57.0934C33.0231 60.2624 33.4069 63.4616 31.1553 66.305ZM3.75944 12.8979C7.39367 12.8979 11.0192 12.8979 14.7405 12.8979C14.7405 11.5745 14.8176 10.3039 14.7247 9.0462C14.5195 6.2586 12.278 4.01965 9.6742 3.89916C6.62565 3.75768 4.21797 5.58404 3.79274 8.5649C3.59561 9.95091 3.75944 11.3891 3.75944 12.8979Z" fill="#0F69C9"/>
<path d="M40.2881 36.2981C35.8166 36.2985 31.345 36.3035 26.8734 36.2951C25.4807 36.2924 24.5219 35.4249 24.5108 34.202C24.5001 32.9818 25.4457 32.0913 26.8206 32.0291C26.9676 32.0223 27.1146 32.023 27.262 32.023C32.2338 32.024 37.2056 32.0253 42.1774 32.0264C45.9432 32.0274 49.7086 32.024 53.4744 32.0348C53.8814 32.0362 54.305 32.0636 54.6922 32.178C55.6822 32.4704 56.238 33.454 56.0903 34.5506C55.9635 35.4919 55.1726 36.2443 54.1435 36.267C52.1735 36.3103 50.2018 36.2944 48.2311 36.2968C45.5835 36.3005 42.9357 36.2978 40.2881 36.2981Z" fill="#0F69C9"/>
<path d="M40.4067 11.3493C44.849 11.3493 49.2916 11.3452 53.7342 11.3516C55.2279 11.3537 56.1136 12.1558 56.1156 13.4731C56.1177 14.7397 55.1508 15.6024 53.707 15.6028C44.7924 15.6048 35.8779 15.5997 26.9634 15.6072C26.0026 15.6078 25.2363 15.2978 24.7636 14.4215C24.3774 13.7053 24.437 12.9969 24.8635 12.3197C25.3813 11.4972 26.1728 11.3303 27.0798 11.334C31.5221 11.352 35.9647 11.3422 40.4073 11.3422C40.4067 11.3445 40.4067 11.3469 40.4067 11.3493Z" fill="#0F69C9"/>
<path d="M38.8855 25.9414C34.8866 25.9414 30.8881 25.9425 26.8892 25.9408C25.5025 25.9401 24.5296 25.0939 24.5101 23.8798C24.4902 22.6285 25.4732 21.6937 26.8851 21.6923C34.8826 21.6846 42.8804 21.6863 50.8779 21.6967C52.236 21.6984 53.1739 22.6262 53.1513 23.8741C53.1291 25.0922 52.2117 25.9418 50.8816 25.9438C46.8827 25.9502 42.8841 25.9462 38.8852 25.9462C38.8855 25.9448 38.8855 25.9431 38.8855 25.9414Z" fill="#0F69C9"/>
<path d="M36.1118 42.3988C39.1997 42.3988 42.288 42.3886 45.3759 42.4042C46.4763 42.4096 47.2275 42.967 47.5239 43.9103C47.7792 44.7233 47.5013 45.7259 46.7609 46.1862C46.3333 46.4519 45.7813 46.6455 45.2837 46.6479C39.1372 46.68 32.9903 46.6814 26.8437 46.6655C25.4672 46.6617 24.5107 45.7347 24.5107 44.5209C24.5107 43.2896 25.4419 42.4201 26.8481 42.412C29.936 42.394 33.0239 42.4065 36.1118 42.4065C36.1118 42.4038 36.1118 42.4011 36.1118 42.3988Z" fill="#0F69C9"/>
</svg>
