<svg width="71" height="70" viewBox="0 0 71 70" fill="none" xmlns="http://www.w3.org/2000/svg">
<path d="M27.4663 21.897C27.4517 15.1918 29.9331 9.58941 34.9875 5.20514C39.3711 1.40186 44.5286 -0.282515 50.3214 0.0391038C61.3864 0.653048 70.2398 10.1405 70.3484 21.2562C70.462 32.8772 60.6932 43.1726 48.3172 42.8724C48.5492 43.1177 48.7078 43.2947 48.8757 43.4625C51.6817 46.2698 54.4957 49.0692 57.2853 51.893C57.599 52.2103 57.8669 52.6357 57.9982 53.0598C59.439 57.712 60.8769 62.366 62.2421 67.0408C62.4972 67.9147 62.427 68.8838 62.5234 70.0019C61.3462 69.8908 60.266 69.9549 59.2877 69.6687C54.7484 68.3419 50.2335 66.9291 45.7205 65.5139C45.2323 65.3607 44.7349 65.0677 44.3718 64.7083C40.6161 60.9911 36.8867 57.2464 33.1493 53.5102C32.9699 53.3308 32.7819 53.1593 32.6336 53.0177C32.052 53.6054 31.4973 54.1657 30.8491 54.8199C31.6041 55.5541 32.4493 56.3267 33.2378 57.1524C35.1821 59.1907 34.2222 62.4301 31.4869 63.0703C30.3377 63.3394 29.3069 63.0148 28.3281 62.2305C27.7245 63.3278 26.8438 64.0632 25.6105 64.2445C24.3923 64.4239 23.3445 64.0174 22.3253 62.9922C21.8523 63.5201 21.4154 64.0657 20.9204 64.5514C16.9835 68.417 10.9942 68.7294 6.68012 65.307C1.79969 61.4347 1.30536 54.0607 5.63165 49.5782C6.151 49.0399 6.70392 48.5334 7.28186 47.9731C6.3646 47.0388 5.90506 45.9854 6.09364 44.7435C6.27916 43.5315 6.95475 42.6344 7.97026 42.1095C7.70356 41.3711 7.32641 40.6967 7.22998 39.9839C7.02127 38.4448 7.85247 37.0576 9.20364 36.4162C10.5597 35.7724 12.1006 36.0354 13.2284 37.1369C14.0175 37.9077 14.7767 38.709 15.5243 39.4707C16.123 38.8543 16.6833 38.2776 17.2789 37.6642C17.191 37.5709 17.0232 37.3823 16.8444 37.2041C12.1287 32.4872 7.41185 27.7716 2.6962 23.0547C-0.371693 19.9862 -0.371083 16.1146 2.6962 13.0436C3.65861 12.08 4.62164 11.1163 5.58649 10.1539C8.63485 7.11228 12.5138 7.10434 15.5475 10.135C19.3026 13.887 23.0558 17.6403 26.8054 21.3972C26.9867 21.5784 27.1282 21.7993 27.2887 22.0013C27.3479 21.9665 27.4071 21.9318 27.4663 21.897ZM29.2215 53.0153C29.335 52.9097 29.4406 52.8175 29.5389 52.7193C32.528 49.7307 35.5178 46.7428 38.5057 43.753C40.9456 41.3119 43.9086 40.3513 47.3255 40.4837C48.9568 40.5472 50.6253 40.5399 52.2298 40.2781C62.5326 38.5967 69.6436 28.3855 67.7688 18.0699C65.4143 5.11116 51.0544 -1.7771 39.6232 4.74865C32.6788 8.71305 29.3985 14.9147 29.8367 22.9686C30.0222 26.3826 29.058 29.3571 26.6199 31.8013C23.6844 34.744 20.7422 37.6801 17.8043 40.6198C17.6292 40.795 17.4638 40.9799 17.3784 41.0702C18.5422 42.2322 19.6456 43.3338 20.7685 44.4542C28.0833 36.0995 35.4458 27.691 42.9047 19.1721C42.4573 19.1721 42.1998 19.1769 41.9428 19.1715C39.221 19.1098 37.1161 16.4105 37.7203 13.7589C38.2586 11.3965 40.3335 9.90798 42.7161 10.1753C44.965 10.4273 46.6414 12.3772 46.6518 14.7536C46.6548 15.4701 46.6524 16.1872 46.6524 16.9519C48.9635 16.9519 51.1624 16.9519 53.4235 16.9519C53.4235 18.8968 53.4235 20.7899 53.4235 22.5622C54.2345 22.5622 54.9803 22.5573 55.7255 22.5634C57.6558 22.5793 59.3127 23.7785 59.9437 25.6105C60.554 27.3828 59.9791 29.4053 58.534 30.5673C57.0248 31.7811 54.9785 31.9215 53.3374 30.9273C52.0235 30.1315 51.3632 28.9183 51.1221 27.3444C42.6361 34.816 34.2124 42.2352 25.8326 49.6154C26.9891 50.7761 28.0809 51.871 29.2215 53.0153ZM24.1787 48.0085C24.2556 47.9524 24.3161 47.9151 24.3685 47.8688C32.705 40.5277 41.0116 33.1524 49.4066 25.8791C50.7413 24.7232 51.4297 23.5881 51.1874 21.8378C51.0678 20.973 51.1667 20.0783 51.1667 19.1745C49.4585 19.1745 47.862 19.1586 46.2667 19.1922C46.0403 19.1971 45.765 19.393 45.6021 19.5785C39.1856 26.8824 32.7788 34.1954 26.3721 41.5084C25.0154 43.0567 23.6631 44.6092 22.329 46.1374C22.9594 46.7751 23.5514 47.3738 24.1787 48.0085ZM20.6238 61.5824C16.6552 57.6138 12.7024 53.6616 8.75508 49.7143C5.84098 52.1456 4.18101 55.2013 5.27159 59.1773C6.1742 62.4679 8.42736 64.5398 11.7607 65.2154C15.5335 65.9807 18.3908 64.2951 20.6238 61.5824ZM7.68037 24.6597C10.866 21.4753 14.0578 18.2847 17.2588 15.0844C16.0595 13.8827 14.814 12.5731 13.5006 11.3354C11.898 9.82437 9.26711 9.81705 7.66817 11.3202C6.35301 12.5566 5.0763 13.8382 3.8362 15.1503C2.3581 16.7145 2.23848 19.1306 3.67204 20.7313C4.94936 22.1576 6.4061 23.4233 7.68037 24.6597ZM34.3418 51.2985C38.0853 55.0414 41.8287 58.7849 45.502 62.4576C46.7732 61.1851 48.089 59.8675 49.3126 58.6427C45.6143 54.945 41.8586 51.1893 38.1573 47.4886C36.9123 48.7323 35.6069 50.0359 34.3418 51.2985ZM51.1404 56.8631C52.4452 55.5534 53.7475 54.2462 55.0706 52.9182C55.0828 52.9469 55.0755 52.8944 55.0456 52.8651C51.7965 49.6117 48.5473 46.3589 45.2902 43.1141C45.1755 42.9993 44.9631 42.8846 44.8215 42.9096C42.8516 43.2593 41.1751 44.1375 39.9002 45.6162C43.6925 49.4109 47.436 53.1562 51.1404 56.8631ZM10.6561 38.1775C10.2729 38.5113 9.84077 38.7591 9.59666 39.1301C9.25124 39.6556 9.50939 40.1707 9.92011 40.5832C11.6936 42.3634 13.4726 44.1381 15.2497 45.9152C20.0496 50.7145 24.8476 55.515 29.6499 60.3124C30.353 61.0142 31.0578 61.0722 31.6205 60.4973C32.1515 59.9554 32.1234 59.2518 31.4997 58.6268C24.9105 52.0297 18.3176 45.4368 11.7149 38.8531C11.4629 38.6016 11.1034 38.4582 10.6561 38.1775ZM60.0896 67.5607C58.7952 63.3602 57.5459 59.3061 56.3547 55.4393C53.5468 58.2484 50.7425 61.0539 47.9657 63.8325C51.8746 65.0342 55.9147 66.2767 60.0896 67.5607ZM26.3465 60.4967C26.2049 60.2972 25.9986 59.9011 25.6983 59.599C22.1715 56.0514 18.6313 52.5173 15.0941 48.9801C13.616 47.502 12.1611 46.0001 10.6396 44.5677C10.3119 44.2596 9.71139 44.0032 9.29518 44.0734C8.20949 44.2565 8.04044 45.4667 8.92718 46.3547C13.94 51.3724 18.9553 56.3871 23.9737 61.3987C24.1537 61.5788 24.3521 61.7612 24.5767 61.8717C25.3969 62.2751 26.3825 61.6264 26.3465 60.4967ZM18.9602 35.9591C20.2687 34.6574 21.5887 33.3434 22.7769 32.1613C20.7721 30.1578 18.7082 28.0944 16.7254 26.1128C15.4981 27.3431 14.1951 28.6491 12.9312 29.9167C14.9305 31.9203 16.9811 33.9757 18.9602 35.9591ZM18.5257 24.1623C20.619 26.2562 22.6836 28.3208 24.7713 30.4086C26.0865 29.2375 26.9403 27.7209 27.3669 25.9383C27.4773 25.4757 27.3907 25.173 27.0446 24.8373C25.63 23.4654 24.2501 22.0581 22.8544 20.666C22.7122 20.5245 22.5523 20.4006 22.412 20.2779C21.073 21.6162 19.7798 22.9088 18.5257 24.1623ZM19.1213 16.9604C15.8984 20.1839 12.7054 23.3775 9.51366 26.5699C10.0165 27.0771 10.5713 27.6367 11.2096 28.2805C14.4197 25.082 17.6188 21.8933 20.8936 18.6301C20.345 18.1102 19.9055 17.6921 19.4649 17.2759C19.3325 17.1496 19.1958 17.0281 19.1213 16.9604ZM44.3944 16.9018C44.3944 16.0554 44.434 15.3041 44.3852 14.5583C44.3052 13.3329 43.28 12.3931 42.1125 12.4132C40.9701 12.4327 39.9716 13.3933 39.8935 14.548C39.8172 15.6721 40.6875 16.7578 41.8794 16.8859C42.6843 16.972 43.5052 16.9018 44.3944 16.9018ZM53.4241 26.3673C53.4241 26.648 53.4021 26.9306 53.4278 27.2083C53.5291 28.294 54.3059 29.1184 55.3776 29.2997C56.265 29.4498 57.2603 28.9067 57.6826 28.0425C58.1227 27.1424 57.9194 26.0976 57.181 25.4183C56.5402 24.8288 55.7572 24.7836 54.9486 24.8111C53.6902 24.8532 53.4162 25.1272 53.4241 26.3673Z" fill="#0F69C9"/>
</svg>
