<svg width="78" height="70" viewBox="0 0 78 70" fill="none" xmlns="http://www.w3.org/2000/svg">
<path d="M0 30.0111C0.41193 29.8665 0.821132 29.6064 1.23594 29.597C3.20332 29.5529 5.17237 29.5772 7.14082 29.5772C7.41352 29.5772 7.68622 29.5772 7.98649 29.5772C8.55689 26.1186 9.51907 22.841 11.0815 19.7722C16.4548 9.21778 24.9412 2.64524 36.5983 0.546358C52.6455 -2.34306 68.5548 6.45078 74.8318 21.4171C76.2532 24.8061 77.1622 28.3277 77.4302 32.0041C77.4446 32.2005 77.5208 32.3925 77.5682 32.5866C77.5682 34.2026 77.5682 35.8185 77.5682 37.4346C77.3706 38.7514 77.2051 40.0739 76.9702 41.384C75.8973 47.3703 73.376 52.697 69.489 57.354C64.7296 63.0562 58.7794 67.0375 51.5574 68.8053C38.8015 71.9279 27.569 68.9145 17.9814 59.9092C16.8479 58.8446 16.8118 57.3608 17.8027 56.3465C18.8126 55.3127 20.2756 55.3416 21.4293 56.4692C25.671 60.6149 30.6775 63.3996 36.4977 64.4853C47.3707 66.5134 56.7719 63.5619 64.4899 55.6124C68.8668 51.1042 71.5467 45.6435 72.3486 39.4217C73.811 28.0737 70.0424 18.6787 61.2163 11.395C57.0835 7.98457 52.2748 5.87008 46.9665 5.22711C34.8162 3.75514 25.061 8.03563 17.8221 17.91C15.3917 21.2251 13.8999 24.9878 13.0596 29.0075C13.0292 29.1534 13.0299 29.306 13.0049 29.5772C13.2963 29.5772 13.5587 29.5772 13.8212 29.5772C15.5126 29.5773 17.2045 29.5523 18.8945 29.5975C19.2527 29.607 19.7834 29.7864 19.9081 30.0448C20.0329 30.3036 19.8473 30.836 19.629 31.1175C16.9232 34.6071 14.1929 38.0775 11.454 41.5415C10.6862 42.5124 9.79405 42.5018 8.99337 41.5328C5.99093 37.8983 2.99713 34.2563 0 30.6171C0 30.4151 0 30.2132 0 30.0111Z" fill="#0F69C9"/>
<path d="M47.7243 24.981C49.7258 26.9911 51.665 28.9386 53.838 31.1211C53.6178 31.2373 53.3172 31.3179 53.1261 31.5084C47.8504 36.7656 42.5874 42.0357 37.3143 47.2956C37.0723 47.5369 36.7836 47.7843 36.4696 47.8921C33.6614 48.8564 30.8428 49.7899 27.9346 50.7636C27.9826 50.5162 27.9976 50.3312 28.0549 50.1602C28.9427 47.5109 29.8314 44.8619 30.7349 42.2179C30.8208 41.9667 30.9665 41.7096 31.1526 41.523C36.5724 36.0884 42.0006 30.6622 47.4284 25.2358C47.5149 25.1496 47.6137 25.0758 47.7243 24.981Z" fill="#0F69C9"/>
<path d="M55.7189 28.9319C53.6892 26.9068 51.7302 24.9521 49.7905 23.0167C50.8601 21.911 51.8952 20.7492 53.0323 19.6976C53.8023 18.9856 55.0252 19.0762 55.7949 19.8056C56.8183 20.7755 57.8226 21.7685 58.7881 22.7956C59.6515 23.7143 59.6264 24.9391 58.7545 25.8541C57.7647 26.893 56.7406 27.8989 55.7189 28.9319Z" fill="#0F69C9"/>
</svg>
